G04 PROTEUS GERBER X2 FILE*
%TF.GenerationSoftware,Labcenter,Proteus,8.12-SP0-Build30713*%
%TF.CreationDate,2023-05-14T03:14:54+00:00*%
%TF.FileFunction,Copper,L2,Bot*%
%TF.FilePolarity,Positive*%
%TF.Part,Single*%
%TF.SameCoordinates,{c0eacf68-35c9-4941-82e1-425e7bc03e7b}*%
%FSLAX45Y45*%
%MOMM*%
G01*
%TA.AperFunction,Conductor*%
%ADD16C,1.016000*%
%TA.AperFunction,ComponentPad*%
%ADD10C,1.778000*%
%ADD11R,2.032000X2.032000*%
%TA.AperFunction,ComponentPad*%
%ADD12C,2.032000*%
%TA.AperFunction,ComponentPad*%
%ADD13C,1.524000*%
%AMPPAD004*
4,1,4,
1.436840,0.000000,
0.000000,-1.436840,
-1.436840,0.000000,
0.000000,1.436840,
1.436840,0.000000,
0*%
%ADD14PPAD004*%
%TA.AperFunction,Profile*%
%ADD15C,0.203200*%
%TD.AperFunction*%
D16*
X-1500000Y+1750000D02*
X-1750000Y+1750000D01*
X-1250000Y+2000000D02*
X-1750000Y+2000000D01*
X-1750000Y+1750000D01*
X-1750000Y+1000000D01*
X-1750000Y+750000D01*
X-929606Y+750000D02*
X-929606Y+820395D01*
X-1320395Y+1570395D02*
X-1570395Y+1570395D01*
X-1570395Y+1101600D01*
X-1500000Y+1000000D01*
X-1750000Y+750000D02*
X-929606Y+750000D01*
X-750000Y+2796800D02*
X-750000Y+1992000D01*
X-640789Y+1882789D01*
X-504000Y+3750000D02*
X-754000Y+3750000D01*
X-754000Y+3279400D01*
X-750000Y+3203200D01*
X-750000Y+3000000D02*
X-500000Y+3000000D01*
X-500000Y+2500000D01*
X-250000Y+2500000D02*
X-250000Y+3750000D01*
X-640789Y+1882789D02*
X-1070395Y+1453183D01*
X-1421978Y+1101600D01*
X-1500000Y+1000000D01*
X-1070395Y+1820395D02*
X-1070395Y+1453183D01*
X-1070395Y+1429605D01*
X-1500000Y+1000000D01*
X-640789Y+1882789D02*
X-637988Y+1804521D01*
X-629927Y+1732141D01*
X-617123Y+1667050D01*
X-600092Y+1610650D01*
X-579348Y+1564343D01*
X-555408Y+1529532D01*
X-528787Y+1507617D01*
X-500000Y+1500000D01*
X-500000Y+1484000D01*
X-250000Y+1484000D02*
X-250000Y+1250000D01*
X-250000Y+1000000D01*
X-254974Y+948883D01*
X-269287Y+901611D01*
X-292023Y+859100D01*
X-322266Y+822266D01*
X-359100Y+792023D01*
X-401611Y+769287D01*
X-448883Y+754974D01*
X-504974Y+754974D01*
X-750000Y+1000000D01*
X-1359210Y+2601210D02*
X-1359210Y+2250000D01*
X-1500000Y+2250000D01*
X-1750000Y+2000000D02*
X-1750000Y+3750000D01*
X-1496000Y+3750000D02*
X-1496000Y+2738000D01*
X-1359210Y+2601210D01*
X-1100000Y+3984000D02*
X-2000000Y+3984000D01*
X-2000000Y+1000000D01*
X-1100000Y+2968000D02*
X-826200Y+2968000D01*
X-750000Y+3000000D01*
D10*
X-1359210Y+2601210D03*
X-640789Y+1882789D03*
D11*
X-1750000Y+3750000D03*
X-1496000Y+3750000D03*
D12*
X-1500000Y+1000000D03*
X-1750000Y+750000D03*
X-2000000Y+1000000D03*
D11*
X-250000Y+3750000D03*
X-504000Y+3750000D03*
D13*
X-750000Y+2796800D03*
X-750000Y+3000000D03*
X-750000Y+3203200D03*
D10*
X-250000Y+2500000D03*
X-250000Y+1484000D03*
X-1100000Y+3984000D03*
X-1100000Y+2968000D03*
X-500000Y+2500000D03*
X-500000Y+1484000D03*
D14*
X-570395Y+1179605D03*
X-750000Y+1000000D03*
X-929606Y+820395D03*
D10*
X-1320395Y+1570395D03*
X-1500000Y+1750000D03*
X-1070395Y+1820395D03*
X-1250000Y+2000000D03*
D12*
X-1500000Y+2250000D03*
D15*
X-1000000Y+4500000D02*
X-1750000Y+4500000D01*
X-2000000Y+4500000D01*
X-1000000Y+4500000D02*
X+0Y+4500000D01*
X+0Y+0D02*
X+0Y+4500000D01*
X-1000000Y+0D02*
X+0Y+0D01*
X-1000000Y+0D02*
X-2000000Y+0D01*
X-2250000Y+0D02*
X-2250000Y+4500000D01*
X-2000000Y+4500000D01*
X-1250000Y+500000D02*
X-1750000Y+500000D01*
X-1750000Y+250000D02*
X-1250000Y+250000D01*
X-1750000Y+500000D02*
X-2000000Y+500000D01*
X-2000000Y+250000D01*
X-1750000Y+250000D01*
X-2250000Y+0D02*
X-2000000Y+0D01*
X-1250000Y+500000D02*
X-1250000Y+250000D01*
M02*
