G04 PROTEUS GERBER X2 FILE*
%TF.GenerationSoftware,Labcenter,Proteus,8.12-SP0-Build30713*%
%TF.CreationDate,2023-05-14T03:14:54+00:00*%
%TF.FileFunction,Legend,Top*%
%TF.FilePolarity,Positive*%
%TF.Part,Single*%
%TF.SameCoordinates,{c0eacf68-35c9-4941-82e1-425e7bc03e7b}*%
%FSLAX45Y45*%
%MOMM*%
G01*
%TA.AperFunction,Material*%
%ADD17C,0.203200*%
%TA.AperFunction,Profile*%
%ADD15C,0.203200*%
%TD.AperFunction*%
D17*
X-1269407Y+2511407D02*
X-1179605Y+2421605D01*
X-1224506Y+2376704D02*
X-865296Y+2017494D01*
X-775493Y+2107296D01*
X-1134703Y+2466507D01*
X-1224506Y+2376704D01*
X-820395Y+2062395D02*
X-730592Y+1972592D01*
X-771902Y+2290493D02*
X-836559Y+2225836D01*
X-892686Y+2281962D01*
X-893135Y+2303964D01*
X-882359Y+2314740D01*
X-860357Y+2314291D01*
X-804231Y+2258164D01*
X-860357Y+2314291D02*
X-860806Y+2336293D01*
X-839254Y+2357845D01*
X-927260Y+2359642D02*
X-971264Y+2360540D01*
X-906606Y+2425198D01*
X-1369000Y+3750000D02*
X-1369827Y+3770483D01*
X-1376545Y+3811450D01*
X-1390563Y+3852417D01*
X-1413341Y+3893384D01*
X-1448141Y+3934229D01*
X-1489108Y+3965845D01*
X-1530075Y+3986392D01*
X-1571042Y+3998629D01*
X-1612009Y+4003762D01*
X-1623000Y+4004000D01*
X-1877000Y+3750000D02*
X-1876173Y+3770483D01*
X-1869455Y+3811450D01*
X-1855437Y+3852417D01*
X-1832659Y+3893384D01*
X-1797859Y+3934229D01*
X-1756892Y+3965845D01*
X-1715925Y+3986392D01*
X-1674958Y+3998629D01*
X-1633991Y+4003762D01*
X-1623000Y+4004000D01*
X-1877000Y+3750000D02*
X-1876173Y+3729517D01*
X-1869455Y+3688550D01*
X-1855437Y+3647583D01*
X-1832659Y+3606616D01*
X-1797859Y+3565771D01*
X-1756892Y+3534155D01*
X-1715925Y+3513608D01*
X-1674958Y+3501371D01*
X-1633991Y+3496238D01*
X-1623000Y+3496000D01*
X-1369000Y+3750000D02*
X-1369827Y+3729517D01*
X-1376545Y+3688550D01*
X-1390563Y+3647583D01*
X-1413341Y+3606616D01*
X-1448141Y+3565771D01*
X-1489108Y+3534155D01*
X-1530075Y+3513608D01*
X-1571042Y+3501371D01*
X-1612009Y+3496238D01*
X-1623000Y+3496000D01*
X-1940500Y+4004000D02*
X-1813500Y+4004000D01*
X-1877000Y+4067500D02*
X-1877000Y+3940500D01*
X-1781750Y+4108140D02*
X-1781750Y+4199580D01*
X-1718250Y+4199580D01*
X-1686500Y+4169100D01*
X-1686500Y+4138620D01*
X-1718250Y+4108140D01*
X-1781750Y+4108140D01*
X-1623000Y+4169100D02*
X-1591250Y+4199580D01*
X-1591250Y+4108140D01*
X-1373000Y+1000000D02*
X-1373427Y+1010409D01*
X-1376899Y+1031228D01*
X-1384155Y+1052047D01*
X-1395983Y+1072866D01*
X-1414080Y+1093524D01*
X-1434899Y+1109045D01*
X-1455718Y+1119030D01*
X-1476537Y+1124814D01*
X-1497356Y+1126972D01*
X-1500000Y+1127000D01*
X-1627000Y+1000000D02*
X-1626573Y+1010409D01*
X-1623101Y+1031228D01*
X-1615845Y+1052047D01*
X-1604017Y+1072866D01*
X-1585920Y+1093524D01*
X-1565101Y+1109045D01*
X-1544282Y+1119030D01*
X-1523463Y+1124814D01*
X-1502644Y+1126972D01*
X-1500000Y+1127000D01*
X-1627000Y+1000000D02*
X-1626573Y+989591D01*
X-1623101Y+968772D01*
X-1615845Y+947953D01*
X-1604017Y+927134D01*
X-1585920Y+906476D01*
X-1565101Y+890955D01*
X-1544282Y+880970D01*
X-1523463Y+875186D01*
X-1502644Y+873028D01*
X-1500000Y+873000D01*
X-1373000Y+1000000D02*
X-1373427Y+989591D01*
X-1376899Y+968772D01*
X-1384155Y+947953D01*
X-1395983Y+927134D01*
X-1414080Y+906476D01*
X-1434899Y+890955D01*
X-1455718Y+880970D01*
X-1476537Y+875186D01*
X-1497356Y+873028D01*
X-1500000Y+873000D01*
X-1436500Y+1000000D02*
X-1436717Y+1005247D01*
X-1438482Y+1015742D01*
X-1442174Y+1026237D01*
X-1448202Y+1036732D01*
X-1457424Y+1047112D01*
X-1467919Y+1054800D01*
X-1478414Y+1059718D01*
X-1488909Y+1062524D01*
X-1499404Y+1063497D01*
X-1500000Y+1063500D01*
X-1563500Y+1000000D02*
X-1563283Y+1005247D01*
X-1561518Y+1015742D01*
X-1557826Y+1026237D01*
X-1551798Y+1036732D01*
X-1542576Y+1047112D01*
X-1532081Y+1054800D01*
X-1521586Y+1059718D01*
X-1511091Y+1062524D01*
X-1500596Y+1063497D01*
X-1500000Y+1063500D01*
X-1563500Y+1000000D02*
X-1563283Y+994753D01*
X-1561518Y+984258D01*
X-1557826Y+973763D01*
X-1551798Y+963268D01*
X-1542576Y+952888D01*
X-1532081Y+945200D01*
X-1521586Y+940282D01*
X-1511091Y+937476D01*
X-1500596Y+936503D01*
X-1500000Y+936500D01*
X-1436500Y+1000000D02*
X-1436717Y+994753D01*
X-1438482Y+984258D01*
X-1442174Y+973763D01*
X-1448202Y+963268D01*
X-1457424Y+952888D01*
X-1467919Y+945200D01*
X-1478414Y+940282D01*
X-1488909Y+937476D01*
X-1499404Y+936503D01*
X-1500000Y+936500D01*
X-1627000Y+1198120D02*
X-1595250Y+1198120D01*
X-1595250Y+1167640D01*
X-1658750Y+1167640D01*
X-1690500Y+1198120D01*
X-1690500Y+1228600D01*
X-1658750Y+1259080D01*
X-1611125Y+1259080D01*
X-1595250Y+1243840D01*
X-1563500Y+1167640D02*
X-1563500Y+1259080D01*
X-1468250Y+1167640D01*
X-1468250Y+1259080D01*
X-1436500Y+1167640D02*
X-1436500Y+1259080D01*
X-1373000Y+1259080D01*
X-1341250Y+1228600D01*
X-1341250Y+1198120D01*
X-1373000Y+1167640D01*
X-1436500Y+1167640D01*
X-1623000Y+750000D02*
X-1623427Y+760409D01*
X-1626899Y+781228D01*
X-1634155Y+802047D01*
X-1645983Y+822866D01*
X-1664080Y+843524D01*
X-1684899Y+859045D01*
X-1705718Y+869030D01*
X-1726537Y+874814D01*
X-1747356Y+876972D01*
X-1750000Y+877000D01*
X-1877000Y+750000D02*
X-1876573Y+760409D01*
X-1873101Y+781228D01*
X-1865845Y+802047D01*
X-1854017Y+822866D01*
X-1835920Y+843524D01*
X-1815101Y+859045D01*
X-1794282Y+869030D01*
X-1773463Y+874814D01*
X-1752644Y+876972D01*
X-1750000Y+877000D01*
X-1877000Y+750000D02*
X-1876573Y+739591D01*
X-1873101Y+718772D01*
X-1865845Y+697953D01*
X-1854017Y+677134D01*
X-1835920Y+656476D01*
X-1815101Y+640955D01*
X-1794282Y+630970D01*
X-1773463Y+625186D01*
X-1752644Y+623028D01*
X-1750000Y+623000D01*
X-1623000Y+750000D02*
X-1623427Y+739591D01*
X-1626899Y+718772D01*
X-1634155Y+697953D01*
X-1645983Y+677134D01*
X-1664080Y+656476D01*
X-1684899Y+640955D01*
X-1705718Y+630970D01*
X-1726537Y+625186D01*
X-1747356Y+623028D01*
X-1750000Y+623000D01*
X-1686500Y+750000D02*
X-1686717Y+755247D01*
X-1688482Y+765742D01*
X-1692174Y+776237D01*
X-1698202Y+786732D01*
X-1707424Y+797112D01*
X-1717919Y+804800D01*
X-1728414Y+809718D01*
X-1738909Y+812524D01*
X-1749404Y+813497D01*
X-1750000Y+813500D01*
X-1813500Y+750000D02*
X-1813283Y+755247D01*
X-1811518Y+765742D01*
X-1807826Y+776237D01*
X-1801798Y+786732D01*
X-1792576Y+797112D01*
X-1782081Y+804800D01*
X-1771586Y+809718D01*
X-1761091Y+812524D01*
X-1750596Y+813497D01*
X-1750000Y+813500D01*
X-1813500Y+750000D02*
X-1813283Y+744753D01*
X-1811518Y+734258D01*
X-1807826Y+723763D01*
X-1801798Y+713268D01*
X-1792576Y+702888D01*
X-1782081Y+695200D01*
X-1771586Y+690282D01*
X-1761091Y+687476D01*
X-1750596Y+686503D01*
X-1750000Y+686500D01*
X-1686500Y+750000D02*
X-1686717Y+744753D01*
X-1688482Y+734258D01*
X-1692174Y+723763D01*
X-1698202Y+713268D01*
X-1707424Y+702888D01*
X-1717919Y+695200D01*
X-1728414Y+690282D01*
X-1738909Y+687476D01*
X-1749404Y+686503D01*
X-1750000Y+686500D01*
X-1940500Y+917640D02*
X-1940500Y+1009080D01*
X-1861125Y+1009080D01*
X-1845250Y+993840D01*
X-1845250Y+978600D01*
X-1861125Y+963360D01*
X-1940500Y+963360D01*
X-1813500Y+1009080D02*
X-1813500Y+917640D01*
X-1765875Y+963360D01*
X-1718250Y+917640D01*
X-1718250Y+1009080D01*
X-1686500Y+917640D02*
X-1686500Y+1009080D01*
X-1607125Y+1009080D01*
X-1591250Y+993840D01*
X-1591250Y+978600D01*
X-1607125Y+963360D01*
X-1686500Y+963360D01*
X-1607125Y+963360D02*
X-1591250Y+948120D01*
X-1591250Y+917640D01*
X-1873000Y+1000000D02*
X-1873427Y+1010409D01*
X-1876899Y+1031228D01*
X-1884155Y+1052047D01*
X-1895983Y+1072866D01*
X-1914080Y+1093524D01*
X-1934899Y+1109045D01*
X-1955718Y+1119030D01*
X-1976537Y+1124814D01*
X-1997356Y+1126972D01*
X-2000000Y+1127000D01*
X-2127000Y+1000000D02*
X-2126573Y+1010409D01*
X-2123101Y+1031228D01*
X-2115845Y+1052047D01*
X-2104017Y+1072866D01*
X-2085920Y+1093524D01*
X-2065101Y+1109045D01*
X-2044282Y+1119030D01*
X-2023463Y+1124814D01*
X-2002644Y+1126972D01*
X-2000000Y+1127000D01*
X-2127000Y+1000000D02*
X-2126573Y+989591D01*
X-2123101Y+968772D01*
X-2115845Y+947953D01*
X-2104017Y+927134D01*
X-2085920Y+906476D01*
X-2065101Y+890955D01*
X-2044282Y+880970D01*
X-2023463Y+875186D01*
X-2002644Y+873028D01*
X-2000000Y+873000D01*
X-1873000Y+1000000D02*
X-1873427Y+989591D01*
X-1876899Y+968772D01*
X-1884155Y+947953D01*
X-1895983Y+927134D01*
X-1914080Y+906476D01*
X-1934899Y+890955D01*
X-1955718Y+880970D01*
X-1976537Y+875186D01*
X-1997356Y+873028D01*
X-2000000Y+873000D01*
X-1936500Y+1000000D02*
X-1936717Y+1005247D01*
X-1938482Y+1015742D01*
X-1942174Y+1026237D01*
X-1948202Y+1036732D01*
X-1957424Y+1047112D01*
X-1967919Y+1054800D01*
X-1978414Y+1059718D01*
X-1988909Y+1062524D01*
X-1999404Y+1063497D01*
X-2000000Y+1063500D01*
X-2063500Y+1000000D02*
X-2063283Y+1005247D01*
X-2061518Y+1015742D01*
X-2057826Y+1026237D01*
X-2051798Y+1036732D01*
X-2042576Y+1047112D01*
X-2032081Y+1054800D01*
X-2021586Y+1059718D01*
X-2011091Y+1062524D01*
X-2000596Y+1063497D01*
X-2000000Y+1063500D01*
X-2063500Y+1000000D02*
X-2063283Y+994753D01*
X-2061518Y+984258D01*
X-2057826Y+973763D01*
X-2051798Y+963268D01*
X-2042576Y+952888D01*
X-2032081Y+945200D01*
X-2021586Y+940282D01*
X-2011091Y+937476D01*
X-2000596Y+936503D01*
X-2000000Y+936500D01*
X-1936500Y+1000000D02*
X-1936717Y+994753D01*
X-1938482Y+984258D01*
X-1942174Y+973763D01*
X-1948202Y+963268D01*
X-1957424Y+952888D01*
X-1967919Y+945200D01*
X-1978414Y+940282D01*
X-1988909Y+937476D01*
X-1999404Y+936503D01*
X-2000000Y+936500D01*
X-2381000Y+1167640D02*
X-2381000Y+1228600D01*
X-2349250Y+1259080D01*
X-2317500Y+1259080D01*
X-2285750Y+1228600D01*
X-2285750Y+1167640D01*
X-2381000Y+1198120D02*
X-2285750Y+1198120D01*
X-2254000Y+1167640D02*
X-2254000Y+1259080D01*
X-2174625Y+1259080D01*
X-2158750Y+1243840D01*
X-2158750Y+1228600D01*
X-2174625Y+1213360D01*
X-2254000Y+1213360D01*
X-2174625Y+1213360D02*
X-2158750Y+1198120D01*
X-2158750Y+1167640D01*
X-2127000Y+1167640D02*
X-2127000Y+1259080D01*
X-2063500Y+1259080D01*
X-2031750Y+1228600D01*
X-2031750Y+1198120D01*
X-2063500Y+1167640D01*
X-2127000Y+1167640D01*
X-2000000Y+1259080D02*
X-1904750Y+1259080D01*
X-1952375Y+1259080D02*
X-1952375Y+1167640D01*
X-1873000Y+1167640D02*
X-1873000Y+1259080D01*
X-1793625Y+1259080D01*
X-1777750Y+1243840D01*
X-1777750Y+1228600D01*
X-1793625Y+1213360D01*
X-1873000Y+1213360D01*
X-1793625Y+1213360D02*
X-1777750Y+1198120D01*
X-1777750Y+1167640D01*
X-1746000Y+1167640D02*
X-1746000Y+1228600D01*
X-1714250Y+1259080D01*
X-1682500Y+1259080D01*
X-1650750Y+1228600D01*
X-1650750Y+1167640D01*
X-1746000Y+1198120D02*
X-1650750Y+1198120D01*
X-123000Y+3750000D02*
X-123827Y+3770483D01*
X-130545Y+3811450D01*
X-144563Y+3852417D01*
X-167341Y+3893384D01*
X-202141Y+3934229D01*
X-243108Y+3965845D01*
X-284075Y+3986392D01*
X-325042Y+3998629D01*
X-366009Y+4003762D01*
X-377000Y+4004000D01*
X-631000Y+3750000D02*
X-630173Y+3770483D01*
X-623455Y+3811450D01*
X-609437Y+3852417D01*
X-586659Y+3893384D01*
X-551859Y+3934229D01*
X-510892Y+3965845D01*
X-469925Y+3986392D01*
X-428958Y+3998629D01*
X-387991Y+4003762D01*
X-377000Y+4004000D01*
X-631000Y+3750000D02*
X-630173Y+3729517D01*
X-623455Y+3688550D01*
X-609437Y+3647583D01*
X-586659Y+3606616D01*
X-551859Y+3565771D01*
X-510892Y+3534155D01*
X-469925Y+3513608D01*
X-428958Y+3501371D01*
X-387991Y+3496238D01*
X-377000Y+3496000D01*
X-123000Y+3750000D02*
X-123827Y+3729517D01*
X-130545Y+3688550D01*
X-144563Y+3647583D01*
X-167341Y+3606616D01*
X-202141Y+3565771D01*
X-243108Y+3534155D01*
X-284075Y+3513608D01*
X-325042Y+3501371D01*
X-366009Y+3496238D01*
X-377000Y+3496000D01*
X-59500Y+3496000D02*
X-186500Y+3496000D01*
X-123000Y+3432500D02*
X-123000Y+3559500D01*
X-472250Y+3300420D02*
X-472250Y+3391860D01*
X-408750Y+3391860D01*
X-377000Y+3361380D01*
X-377000Y+3330900D01*
X-408750Y+3300420D01*
X-472250Y+3300420D01*
X-329375Y+3376620D02*
X-313500Y+3391860D01*
X-265875Y+3391860D01*
X-250000Y+3376620D01*
X-250000Y+3361380D01*
X-265875Y+3346140D01*
X-313500Y+3346140D01*
X-329375Y+3330900D01*
X-329375Y+3300420D01*
X-250000Y+3300420D01*
X-584900Y+2746000D02*
X-584900Y+3254000D01*
X-750000Y+2669800D02*
X-711702Y+2674562D01*
X-672212Y+2688850D01*
X-630342Y+2712662D01*
X-584900Y+2746000D01*
X-750000Y+2669800D02*
X-814918Y+2672431D01*
X-874953Y+2688912D01*
X-928942Y+2717839D01*
X-975722Y+2757807D01*
X-1014131Y+2807412D01*
X-1043005Y+2865249D01*
X-1061182Y+2929913D01*
X-1067500Y+3000000D01*
X-750000Y+3330200D02*
X-711702Y+3325438D01*
X-672212Y+3311150D01*
X-630342Y+3287338D01*
X-584900Y+3254000D01*
X-750000Y+3330200D02*
X-814918Y+3327569D01*
X-874953Y+3311088D01*
X-928942Y+3282161D01*
X-975722Y+3242193D01*
X-1014131Y+3192588D01*
X-1043005Y+3134751D01*
X-1061182Y+3070087D01*
X-1067500Y+3000000D01*
X-1169100Y+2873000D02*
X-1199580Y+2904750D01*
X-1199580Y+2936500D01*
X-1169100Y+2968250D01*
X-1138620Y+2968250D01*
X-1108140Y+2936500D01*
X-1108140Y+2904750D01*
X-1138620Y+2873000D01*
X-1169100Y+2873000D01*
X-1138620Y+2936500D02*
X-1108140Y+2968250D01*
X-1169100Y+3031750D02*
X-1199580Y+3063500D01*
X-1108140Y+3063500D01*
X-250000Y+2373000D02*
X-250000Y+2246000D01*
X-313500Y+1738000D02*
X-186500Y+1738000D01*
X-186500Y+2246000D01*
X-313500Y+2246000D01*
X-313500Y+1738000D01*
X-250000Y+1738000D02*
X-250000Y+1611000D01*
X-54420Y+1865000D02*
X-145860Y+1865000D01*
X-145860Y+1944375D01*
X-130620Y+1960250D01*
X-115380Y+1960250D01*
X-100140Y+1944375D01*
X-100140Y+1865000D01*
X-100140Y+1944375D02*
X-84900Y+1960250D01*
X-54420Y+1960250D01*
X-130620Y+2007875D02*
X-145860Y+2023750D01*
X-145860Y+2071375D01*
X-130620Y+2087250D01*
X-115380Y+2087250D01*
X-100140Y+2071375D01*
X-100140Y+2023750D01*
X-84900Y+2007875D01*
X-54420Y+2007875D01*
X-54420Y+2087250D01*
X-1100000Y+3857000D02*
X-1100000Y+3730000D01*
X-1163500Y+3222000D02*
X-1036500Y+3222000D01*
X-1036500Y+3730000D01*
X-1163500Y+3730000D01*
X-1163500Y+3222000D01*
X-1100000Y+3222000D02*
X-1100000Y+3095000D01*
X-904420Y+3349000D02*
X-995860Y+3349000D01*
X-995860Y+3428375D01*
X-980620Y+3444250D01*
X-965380Y+3444250D01*
X-950140Y+3428375D01*
X-950140Y+3349000D01*
X-950140Y+3428375D02*
X-934900Y+3444250D01*
X-904420Y+3444250D01*
X-980620Y+3491875D02*
X-995860Y+3507750D01*
X-995860Y+3555375D01*
X-980620Y+3571250D01*
X-965380Y+3571250D01*
X-950140Y+3555375D01*
X-934900Y+3571250D01*
X-919660Y+3571250D01*
X-904420Y+3555375D01*
X-904420Y+3507750D01*
X-919660Y+3491875D01*
X-950140Y+3523625D02*
X-950140Y+3555375D01*
X-500000Y+2373000D02*
X-500000Y+2246000D01*
X-563500Y+1738000D02*
X-436500Y+1738000D01*
X-436500Y+2246000D01*
X-563500Y+2246000D01*
X-563500Y+1738000D01*
X-500000Y+1738000D02*
X-500000Y+1611000D01*
X-304420Y+1865000D02*
X-395860Y+1865000D01*
X-395860Y+1944375D01*
X-380620Y+1960250D01*
X-365380Y+1960250D01*
X-350140Y+1944375D01*
X-350140Y+1865000D01*
X-350140Y+1944375D02*
X-334900Y+1960250D01*
X-304420Y+1960250D01*
X-334900Y+2087250D02*
X-334900Y+1992000D01*
X-395860Y+2055500D01*
X-304420Y+2055500D01*
X-570395Y+1359210D02*
X-1109210Y+820395D01*
X-929605Y+640790D01*
X-390790Y+1179605D01*
X-570395Y+1359210D01*
X-390790Y+1179605D02*
X-300987Y+1089803D01*
X-839803Y+550987D01*
X-929605Y+640790D01*
X-390790Y+1179605D02*
X-390790Y+1000000D01*
X-480592Y+1089803D02*
X-480592Y+910197D01*
X-570395Y+1000000D02*
X-570395Y+820395D01*
X-660197Y+910197D02*
X-660197Y+730592D01*
X-750000Y+820395D02*
X-750000Y+640790D01*
X-839803Y+730592D02*
X-839803Y+550987D01*
X-631461Y+701855D02*
X-577580Y+647974D01*
X-555578Y+648423D01*
X-510677Y+693324D01*
X-510228Y+715326D01*
X-564110Y+769207D01*
X-497655Y+792556D02*
X-496757Y+836560D01*
X-432099Y+771902D01*
X-1230592Y+1480592D02*
X-1252482Y+1465887D01*
X-1279759Y+1459264D01*
X-1311415Y+1460387D01*
X-1346438Y+1468918D01*
X-1383818Y+1484521D01*
X-1422545Y+1506860D01*
X-1461609Y+1535596D01*
X-1500000Y+1570395D01*
X-1589803Y+1839803D02*
X-1604508Y+1817913D01*
X-1611131Y+1790636D01*
X-1610008Y+1758980D01*
X-1601477Y+1723957D01*
X-1585874Y+1686577D01*
X-1563535Y+1647850D01*
X-1534798Y+1608786D01*
X-1500000Y+1570395D01*
X-1230592Y+1480592D02*
X-1215887Y+1502482D01*
X-1209264Y+1529759D01*
X-1210387Y+1561415D01*
X-1218918Y+1596438D01*
X-1234521Y+1633818D01*
X-1256860Y+1672545D01*
X-1285597Y+1711609D01*
X-1320395Y+1750000D01*
X-1589803Y+1839803D02*
X-1567913Y+1854508D01*
X-1540636Y+1861131D01*
X-1508980Y+1860008D01*
X-1473957Y+1851477D01*
X-1436577Y+1835874D01*
X-1397850Y+1813535D01*
X-1358786Y+1784799D01*
X-1320395Y+1750000D01*
X-1517062Y+1508431D02*
X-1495060Y+1507982D01*
X-1461384Y+1474306D01*
X-1460486Y+1430303D01*
X-1482039Y+1408750D01*
X-1526042Y+1409648D01*
X-1559718Y+1443324D01*
X-1560167Y+1465326D01*
X-1594292Y+1521004D02*
X-1638296Y+1521902D01*
X-1573638Y+1586560D01*
X-980592Y+1730592D02*
X-1002482Y+1715887D01*
X-1029759Y+1709264D01*
X-1061415Y+1710387D01*
X-1096438Y+1718918D01*
X-1133818Y+1734521D01*
X-1172545Y+1756860D01*
X-1211609Y+1785596D01*
X-1250000Y+1820395D01*
X-1339803Y+2089803D02*
X-1354508Y+2067913D01*
X-1361131Y+2040636D01*
X-1360008Y+2008980D01*
X-1351477Y+1973957D01*
X-1335874Y+1936577D01*
X-1313535Y+1897850D01*
X-1284798Y+1858786D01*
X-1250000Y+1820395D01*
X-980592Y+1730592D02*
X-965887Y+1752482D01*
X-959264Y+1779759D01*
X-960387Y+1811415D01*
X-968918Y+1846438D01*
X-984521Y+1883818D01*
X-1006860Y+1922545D01*
X-1035597Y+1961609D01*
X-1070395Y+2000000D01*
X-1339803Y+2089803D02*
X-1317913Y+2104508D01*
X-1290636Y+2111131D01*
X-1258980Y+2110008D01*
X-1223957Y+2101477D01*
X-1186577Y+2085874D01*
X-1147850Y+2063535D01*
X-1108786Y+2034799D01*
X-1070395Y+2000000D01*
X-1267063Y+1758431D02*
X-1245061Y+1757982D01*
X-1211385Y+1724306D01*
X-1210487Y+1680303D01*
X-1232040Y+1658750D01*
X-1276043Y+1659648D01*
X-1309719Y+1693324D01*
X-1310168Y+1715326D01*
X-1343844Y+1749002D02*
X-1365846Y+1749451D01*
X-1399522Y+1783127D01*
X-1399971Y+1805129D01*
X-1389195Y+1815905D01*
X-1367193Y+1815456D01*
X-1333517Y+1781780D01*
X-1311516Y+1781331D01*
X-1289963Y+1802884D01*
X-1346090Y+1859010D01*
D15*
X-1000000Y+4500000D02*
X-1750000Y+4500000D01*
X-2000000Y+4500000D01*
X-1000000Y+4500000D02*
X+0Y+4500000D01*
X+0Y+0D02*
X+0Y+4500000D01*
X-1000000Y+0D02*
X+0Y+0D01*
X-1000000Y+0D02*
X-2000000Y+0D01*
X-2250000Y+0D02*
X-2250000Y+4500000D01*
X-2000000Y+4500000D01*
X-1250000Y+500000D02*
X-1750000Y+500000D01*
X-1750000Y+250000D02*
X-1250000Y+250000D01*
X-1750000Y+500000D02*
X-2000000Y+500000D01*
X-2000000Y+250000D01*
X-1750000Y+250000D01*
X-2250000Y+0D02*
X-2000000Y+0D01*
D17*
X-1373000Y+2250000D02*
X-1373427Y+2260409D01*
X-1376899Y+2281228D01*
X-1384155Y+2302047D01*
X-1395983Y+2322866D01*
X-1414080Y+2343524D01*
X-1434899Y+2359045D01*
X-1455718Y+2369030D01*
X-1476537Y+2374814D01*
X-1497356Y+2376972D01*
X-1500000Y+2377000D01*
X-1627000Y+2250000D02*
X-1626573Y+2260409D01*
X-1623101Y+2281228D01*
X-1615845Y+2302047D01*
X-1604017Y+2322866D01*
X-1585920Y+2343524D01*
X-1565101Y+2359045D01*
X-1544282Y+2369030D01*
X-1523463Y+2374814D01*
X-1502644Y+2376972D01*
X-1500000Y+2377000D01*
X-1627000Y+2250000D02*
X-1626573Y+2239591D01*
X-1623101Y+2218772D01*
X-1615845Y+2197953D01*
X-1604017Y+2177134D01*
X-1585920Y+2156476D01*
X-1565101Y+2140955D01*
X-1544282Y+2130970D01*
X-1523463Y+2125186D01*
X-1502644Y+2123028D01*
X-1500000Y+2123000D01*
X-1373000Y+2250000D02*
X-1373427Y+2239591D01*
X-1376899Y+2218772D01*
X-1384155Y+2197953D01*
X-1395983Y+2177134D01*
X-1414080Y+2156476D01*
X-1434899Y+2140955D01*
X-1455718Y+2130970D01*
X-1476537Y+2125186D01*
X-1497356Y+2123028D01*
X-1500000Y+2123000D01*
X-1436500Y+2250000D02*
X-1436717Y+2255247D01*
X-1438482Y+2265742D01*
X-1442174Y+2276237D01*
X-1448202Y+2286732D01*
X-1457424Y+2297112D01*
X-1467919Y+2304800D01*
X-1478414Y+2309718D01*
X-1488909Y+2312524D01*
X-1499404Y+2313497D01*
X-1500000Y+2313500D01*
X-1563500Y+2250000D02*
X-1563283Y+2255247D01*
X-1561518Y+2265742D01*
X-1557826Y+2276237D01*
X-1551798Y+2286732D01*
X-1542576Y+2297112D01*
X-1532081Y+2304800D01*
X-1521586Y+2309718D01*
X-1511091Y+2312524D01*
X-1500596Y+2313497D01*
X-1500000Y+2313500D01*
X-1563500Y+2250000D02*
X-1563283Y+2244753D01*
X-1561518Y+2234258D01*
X-1557826Y+2223763D01*
X-1551798Y+2213268D01*
X-1542576Y+2202888D01*
X-1532081Y+2195200D01*
X-1521586Y+2190282D01*
X-1511091Y+2187476D01*
X-1500596Y+2186503D01*
X-1500000Y+2186500D01*
X-1436500Y+2250000D02*
X-1436717Y+2244753D01*
X-1438482Y+2234258D01*
X-1442174Y+2223763D01*
X-1448202Y+2213268D01*
X-1457424Y+2202888D01*
X-1467919Y+2195200D01*
X-1478414Y+2190282D01*
X-1488909Y+2187476D01*
X-1499404Y+2186503D01*
X-1500000Y+2186500D01*
X-1881000Y+2417640D02*
X-1881000Y+2478600D01*
X-1849250Y+2509080D01*
X-1817500Y+2509080D01*
X-1785750Y+2478600D01*
X-1785750Y+2417640D01*
X-1881000Y+2448120D02*
X-1785750Y+2448120D01*
X-1754000Y+2417640D02*
X-1754000Y+2509080D01*
X-1674625Y+2509080D01*
X-1658750Y+2493840D01*
X-1658750Y+2478600D01*
X-1674625Y+2463360D01*
X-1754000Y+2463360D01*
X-1674625Y+2463360D02*
X-1658750Y+2448120D01*
X-1658750Y+2417640D01*
X-1627000Y+2417640D02*
X-1627000Y+2509080D01*
X-1563500Y+2509080D01*
X-1531750Y+2478600D01*
X-1531750Y+2448120D01*
X-1563500Y+2417640D01*
X-1627000Y+2417640D01*
X-1500000Y+2417640D02*
X-1500000Y+2509080D01*
X-1420625Y+2509080D01*
X-1404750Y+2493840D01*
X-1404750Y+2478600D01*
X-1420625Y+2463360D01*
X-1500000Y+2463360D01*
X-1420625Y+2463360D02*
X-1404750Y+2448120D01*
X-1404750Y+2417640D01*
X-1277750Y+2417640D02*
X-1373000Y+2417640D01*
X-1373000Y+2509080D01*
X-1277750Y+2509080D01*
X-1373000Y+2463360D02*
X-1309500Y+2463360D01*
X-1150750Y+2432880D02*
X-1166625Y+2417640D01*
X-1214250Y+2417640D01*
X-1246000Y+2448120D01*
X-1246000Y+2478600D01*
X-1214250Y+2509080D01*
X-1166625Y+2509080D01*
X-1150750Y+2493840D01*
D15*
X-1250000Y+500000D02*
X-1250000Y+250000D01*
M02*
