M48
METRIC,TZ
T01C0.7620
T02C1.0160
%
T01
X-82500Y+72500
X-82500Y+62340
X-85000Y+57500
X-90000Y+57500
X-87500Y+72500
X-87500Y+85000
X-79532Y+80000
X-77500Y+80000
X-75468Y+80000
X-72500Y+67500
X-72500Y+57340
X-82340Y+85000
X-72180Y+85000
X-77500Y+67500
X-77500Y+57340
X-87500Y+62500
X-90040Y+62500
X-87500Y+67500
X-90040Y+67500
T02
X-85000Y+80000
X-85000Y+77460
X-72500Y+77460
X-72500Y+80000
X-77500Y+52500
X-77500Y+49960
X-77500Y+47420
M30
