G04 PROTEUS RS274X GERBER FILE*
%FSLAX45Y45*%
%MOMM*%
G01*
%ADD15C,0.203200*%
%ADD16C,0.127000*%
%ADD17C,0.063500*%
D15*
X-8250000Y+7313500D02*
X-8250000Y+7186500D01*
X-8313500Y+7250000D02*
X-8186500Y+7250000D01*
X-8250000Y+6297500D02*
X-8250000Y+6170500D01*
X-8313500Y+6234000D02*
X-8186500Y+6234000D01*
X-8544901Y+8044901D02*
X-8455099Y+7955099D01*
X-8544901Y+7955099D02*
X-8455099Y+8044901D01*
X-8544901Y+7790901D02*
X-8455099Y+7701099D01*
X-8544901Y+7701099D02*
X-8455099Y+7790901D01*
X-8500000Y+5813500D02*
X-8500000Y+5686500D01*
X-8563500Y+5750000D02*
X-8436500Y+5750000D01*
X-9000000Y+5813500D02*
X-9000000Y+5686500D01*
X-9063500Y+5750000D02*
X-8936500Y+5750000D01*
X-8750000Y+7313500D02*
X-8750000Y+7186500D01*
X-8813500Y+7250000D02*
X-8686500Y+7250000D01*
X-8750000Y+8563500D02*
X-8750000Y+8436500D01*
X-8813500Y+8500000D02*
X-8686500Y+8500000D01*
X-7294901Y+7790901D02*
X-7205099Y+7701099D01*
X-7294901Y+7701099D02*
X-7205099Y+7790901D01*
X-7294901Y+8044901D02*
X-7205099Y+7955099D01*
X-7294901Y+7955099D02*
X-7205099Y+8044901D01*
X-7953200Y+8063500D02*
X-7953200Y+7936500D01*
X-8016700Y+8000000D02*
X-7889700Y+8000000D01*
X-7750000Y+8063500D02*
X-7750000Y+7936500D01*
X-7813500Y+8000000D02*
X-7686500Y+8000000D01*
X-7546800Y+8063500D02*
X-7546800Y+7936500D01*
X-7610300Y+8000000D02*
X-7483300Y+8000000D01*
X-7250000Y+6813500D02*
X-7250000Y+6686500D01*
X-7313500Y+6750000D02*
X-7186500Y+6750000D01*
X-7250000Y+5797500D02*
X-7250000Y+5670500D01*
X-7313500Y+5734000D02*
X-7186500Y+5734000D01*
X-8234000Y+8563500D02*
X-8234000Y+8436500D01*
X-8297500Y+8500000D02*
X-8170500Y+8500000D01*
X-7218000Y+8563500D02*
X-7218000Y+8436500D01*
X-7281500Y+8500000D02*
X-7154500Y+8500000D01*
X-7750000Y+6813500D02*
X-7750000Y+6686500D01*
X-7813500Y+6750000D02*
X-7686500Y+6750000D01*
X-7750000Y+5797500D02*
X-7750000Y+5670500D01*
X-7813500Y+5734000D02*
X-7686500Y+5734000D01*
X-7794901Y+5294901D02*
X-7705099Y+5205099D01*
X-7794901Y+5205099D02*
X-7705099Y+5294901D01*
X-7794901Y+5040901D02*
X-7705099Y+4951099D01*
X-7794901Y+4951099D02*
X-7705099Y+5040901D01*
X-7794901Y+4786901D02*
X-7705099Y+4697099D01*
X-7794901Y+4697099D02*
X-7705099Y+4786901D01*
X-8750000Y+6313500D02*
X-8750000Y+6186500D01*
X-8813500Y+6250000D02*
X-8686500Y+6250000D01*
X-9004000Y+6313500D02*
X-9004000Y+6186500D01*
X-9067500Y+6250000D02*
X-8940500Y+6250000D01*
X-8750000Y+6813500D02*
X-8750000Y+6686500D01*
X-8813500Y+6750000D02*
X-8686500Y+6750000D01*
X-9004000Y+6813500D02*
X-9004000Y+6686500D01*
X-9067500Y+6750000D02*
X-8940500Y+6750000D01*
D16*
X-9260160Y-3403160D02*
X-6616020Y-3403160D01*
X-6616020Y-2641160D01*
X-9260160Y-2641160D01*
X-9260160Y-3403160D01*
D17*
X-8792798Y-2641160D02*
X-8792798Y-3403160D01*
X-7979998Y-2641160D02*
X-7979998Y-3403160D01*
X-7146878Y-2641160D02*
X-7146878Y-3403160D01*
X-9260160Y-2914210D02*
X-6616020Y-2914210D01*
X-9260160Y-3155510D02*
X-6616020Y-3155510D01*
D16*
X-9203010Y-2804990D02*
X-9187770Y-2820230D01*
X-9126810Y-2820230D01*
X-9111570Y-2804990D01*
X-9111570Y-2789750D01*
X-9126810Y-2774510D01*
X-9187770Y-2774510D01*
X-9203010Y-2759270D01*
X-9203010Y-2744030D01*
X-9187770Y-2728790D01*
X-9126810Y-2728790D01*
X-9111570Y-2744030D01*
X-8989650Y-2728790D02*
X-9081090Y-2820230D01*
X-9081090Y-2728790D02*
X-9035370Y-2774510D01*
X-8959170Y-2820230D02*
X-8959170Y-2728790D01*
X-8913450Y-2774510D01*
X-8867730Y-2728790D01*
X-8867730Y-2820230D01*
X-8735650Y-2804990D02*
X-8720410Y-2820230D01*
X-8659450Y-2820230D01*
X-8644210Y-2804990D01*
X-8644210Y-2789750D01*
X-8659450Y-2774510D01*
X-8720410Y-2774510D01*
X-8735650Y-2759270D01*
X-8735650Y-2744030D01*
X-8720410Y-2728790D01*
X-8659450Y-2728790D01*
X-8644210Y-2744030D01*
X-8598490Y-2728790D02*
X-8537530Y-2728790D01*
X-8568010Y-2728790D02*
X-8568010Y-2820230D01*
X-8598490Y-2820230D02*
X-8537530Y-2820230D01*
X-8491810Y-2728790D02*
X-8400370Y-2728790D01*
X-8491810Y-2820230D01*
X-8400370Y-2820230D01*
X-8278450Y-2820230D02*
X-8369890Y-2820230D01*
X-8369890Y-2728790D01*
X-8278450Y-2728790D01*
X-8369890Y-2774510D02*
X-8308930Y-2774510D01*
X-7922850Y-2820230D02*
X-7922850Y-2728790D01*
X-7846650Y-2728790D01*
X-7831410Y-2744030D01*
X-7831410Y-2759270D01*
X-7846650Y-2774510D01*
X-7922850Y-2774510D01*
X-7800930Y-2728790D02*
X-7800930Y-2820230D01*
X-7709490Y-2820230D01*
X-7679010Y-2820230D02*
X-7679010Y-2759270D01*
X-7648530Y-2728790D01*
X-7618050Y-2728790D01*
X-7587570Y-2759270D01*
X-7587570Y-2820230D01*
X-7679010Y-2789750D02*
X-7587570Y-2789750D01*
X-7557090Y-2728790D02*
X-7465650Y-2728790D01*
X-7511370Y-2728790D02*
X-7511370Y-2820230D01*
X-7343730Y-2820230D02*
X-7435170Y-2820230D01*
X-7435170Y-2728790D01*
X-7343730Y-2728790D01*
X-7435170Y-2774510D02*
X-7374210Y-2774510D01*
X-7313250Y-2820230D02*
X-7313250Y-2728790D01*
X-7252290Y-2728790D01*
X-7221810Y-2759270D01*
X-7221810Y-2789750D01*
X-7252290Y-2820230D01*
X-7313250Y-2820230D01*
X-7089730Y-2759270D02*
X-7059250Y-2728790D01*
X-7028770Y-2728790D01*
X-6998290Y-2759270D01*
X-6998290Y-2789750D01*
X-7028770Y-2820230D01*
X-7059250Y-2820230D01*
X-7089730Y-2789750D01*
X-7089730Y-2759270D01*
X-7028770Y-2789750D02*
X-6998290Y-2820230D01*
X-6967810Y-2728790D02*
X-6876370Y-2728790D01*
X-6922090Y-2728790D02*
X-6922090Y-2820230D01*
X-6754450Y-2728790D02*
X-6845890Y-2820230D01*
X-6845890Y-2728790D02*
X-6800170Y-2774510D01*
D15*
X-9013780Y-2965010D02*
X-9013780Y-3092010D01*
X-9077280Y-3028510D02*
X-8950280Y-3028510D01*
D16*
X-8716600Y-3053910D02*
X-8716600Y-3003110D01*
X-8703900Y-2990410D01*
X-8653100Y-2990410D01*
X-8640400Y-3003110D01*
X-8640400Y-3053910D01*
X-8653100Y-3066610D01*
X-8703900Y-3066610D01*
X-8716600Y-3053910D01*
X-8716600Y-3066610D02*
X-8640400Y-2990410D01*
X-8576900Y-3053910D02*
X-8564200Y-3053910D01*
X-8564200Y-3066610D01*
X-8576900Y-3066610D01*
X-8576900Y-3053910D01*
X-8500700Y-2990410D02*
X-8437200Y-2990410D01*
X-8437200Y-3003110D01*
X-8500700Y-3066610D01*
X-8335600Y-3003110D02*
X-8348300Y-2990410D01*
X-8386400Y-2990410D01*
X-8399100Y-3003110D01*
X-8399100Y-3053910D01*
X-8386400Y-3066610D01*
X-8348300Y-3066610D01*
X-8335600Y-3053910D01*
X-8335600Y-3041210D01*
X-8348300Y-3028510D01*
X-8399100Y-3028510D01*
X-8297500Y-3003110D02*
X-8284800Y-2990410D01*
X-8246700Y-2990410D01*
X-8234000Y-3003110D01*
X-8234000Y-3015810D01*
X-8246700Y-3028510D01*
X-8284800Y-3028510D01*
X-8297500Y-3041210D01*
X-8297500Y-3066610D01*
X-8234000Y-3066610D01*
X-8208600Y-3066610D02*
X-8208600Y-3015810D01*
X-8208600Y-3028510D02*
X-8195900Y-3015810D01*
X-8170500Y-3041210D01*
X-8145100Y-3015810D01*
X-8132400Y-3028510D01*
X-8132400Y-3066610D01*
X-8107000Y-3066610D02*
X-8107000Y-3015810D01*
X-8107000Y-3028510D02*
X-8094300Y-3015810D01*
X-8068900Y-3041210D01*
X-8043500Y-3015810D01*
X-8030800Y-3028510D01*
X-8030800Y-3066610D01*
X-7814900Y-2990410D02*
X-7891100Y-3066610D01*
X-7891100Y-2990410D02*
X-7853000Y-3028510D01*
X-7713300Y-3066610D02*
X-7789500Y-3066610D01*
X-7789500Y-2990410D01*
X-7713300Y-2990410D01*
X-7789500Y-3028510D02*
X-7738700Y-3028510D01*
X-7687900Y-3053910D02*
X-7675200Y-3066610D01*
X-7624400Y-3066610D01*
X-7611700Y-3053910D01*
X-7611700Y-3041210D01*
X-7624400Y-3028510D01*
X-7675200Y-3028510D01*
X-7687900Y-3015810D01*
X-7687900Y-3003110D01*
X-7675200Y-2990410D01*
X-7624400Y-2990410D01*
X-7611700Y-3003110D01*
X-7019880Y-3015810D02*
X-6994480Y-2990410D01*
X-6994480Y-3066610D01*
X-6867480Y-3015810D02*
X-6880180Y-3028510D01*
X-6918280Y-3028510D01*
X-6930980Y-3015810D01*
X-6930980Y-3003110D01*
X-6918280Y-2990410D01*
X-6880180Y-2990410D01*
X-6867480Y-3003110D01*
X-6867480Y-3053910D01*
X-6880180Y-3066610D01*
X-6918280Y-3066610D01*
D15*
X-9058681Y-3224909D02*
X-8968879Y-3314711D01*
X-9058681Y-3314711D02*
X-8968879Y-3224909D01*
D16*
X-8691200Y-3257110D02*
X-8665800Y-3231710D01*
X-8665800Y-3307910D01*
X-8576900Y-3295210D02*
X-8564200Y-3295210D01*
X-8564200Y-3307910D01*
X-8576900Y-3307910D01*
X-8576900Y-3295210D01*
X-8513400Y-3295210D02*
X-8513400Y-3244410D01*
X-8500700Y-3231710D01*
X-8449900Y-3231710D01*
X-8437200Y-3244410D01*
X-8437200Y-3295210D01*
X-8449900Y-3307910D01*
X-8500700Y-3307910D01*
X-8513400Y-3295210D01*
X-8513400Y-3307910D02*
X-8437200Y-3231710D01*
X-8386400Y-3257110D02*
X-8361000Y-3231710D01*
X-8361000Y-3307910D01*
X-8234000Y-3244410D02*
X-8246700Y-3231710D01*
X-8284800Y-3231710D01*
X-8297500Y-3244410D01*
X-8297500Y-3295210D01*
X-8284800Y-3307910D01*
X-8246700Y-3307910D01*
X-8234000Y-3295210D01*
X-8234000Y-3282510D01*
X-8246700Y-3269810D01*
X-8297500Y-3269810D01*
X-8208600Y-3307910D02*
X-8208600Y-3257110D01*
X-8208600Y-3269810D02*
X-8195900Y-3257110D01*
X-8170500Y-3282510D01*
X-8145100Y-3257110D01*
X-8132400Y-3269810D01*
X-8132400Y-3307910D01*
X-8107000Y-3307910D02*
X-8107000Y-3257110D01*
X-8107000Y-3269810D02*
X-8094300Y-3257110D01*
X-8068900Y-3282510D01*
X-8043500Y-3257110D01*
X-8030800Y-3269810D01*
X-8030800Y-3307910D01*
X-7814900Y-3231710D02*
X-7891100Y-3307910D01*
X-7891100Y-3231710D02*
X-7853000Y-3269810D01*
X-7713300Y-3307910D02*
X-7789500Y-3307910D01*
X-7789500Y-3231710D01*
X-7713300Y-3231710D01*
X-7789500Y-3269810D02*
X-7738700Y-3269810D01*
X-7687900Y-3295210D02*
X-7675200Y-3307910D01*
X-7624400Y-3307910D01*
X-7611700Y-3295210D01*
X-7611700Y-3282510D01*
X-7624400Y-3269810D01*
X-7675200Y-3269810D01*
X-7687900Y-3257110D01*
X-7687900Y-3244410D01*
X-7675200Y-3231710D01*
X-7624400Y-3231710D01*
X-7611700Y-3244410D01*
X-7032580Y-3231710D02*
X-6969080Y-3231710D01*
X-6969080Y-3244410D01*
X-7032580Y-3307910D01*
M02*
